HIERARCHY
ROOT hip
{
  OFFSET 0 90.174 2.4664
  CHANNELS 6 Xposition Yposition Zposition Zrotation Xrotation Yrotation
  JOINT abdomen
  {
    OFFSET 0 -1.186 -1.5018
    CHANNELS 6 Xposition Yposition Zposition Zrotation Xrotation Yrotation
    JOINT abdomen2
    {
      OFFSET 0 9.964 0.2134
      CHANNELS 6 Xposition Yposition Zposition Zrotation Xrotation Yrotation
      JOINT chest
      {
        OFFSET 0 13.134 -3.2573
        CHANNELS 6 Xposition Yposition Zposition Zrotation Xrotation Yrotation
        JOINT neck
        {
          OFFSET 0 20.686 -1.6905
          CHANNELS 6 Xposition Yposition Zposition Zrotation Xrotation Yrotation
          JOINT head
          {
            OFFSET 0 7.238 -0.1237
            CHANNELS 6 Xposition Yposition Zposition Zrotation Xrotation Yrotation
            End Site
            {
              OFFSET 0 0 0
            }
          }
        }
        JOINT lCollar
        {
          OFFSET 1.7069 20.075 5.0056
          CHANNELS 6 Xposition Yposition Zposition Zrotation Xrotation Yrotation
          JOINT lShldr
          {
            OFFSET 13.6458 -0.047 -4.849
            CHANNELS 6 Xposition Yposition Zposition Zrotation Xrotation Yrotation
            JOINT lForeArm
            {
              OFFSET 28.3255 -0.9759 2.2888
              CHANNELS 6 Xposition Yposition Zposition Zrotation Xrotation Yrotation
              JOINT lHand
              {
                OFFSET 22.1583 -0.53 10.8316
                CHANNELS 6 Xposition Yposition Zposition Zrotation Xrotation Yrotation
                JOINT lThumb1
                {
                  OFFSET 0.786 0.112 2.5817
                  CHANNELS 6 Xposition Yposition Zposition Zrotation Xrotation Yrotation
                  JOINT lThumb2
                  {
                    OFFSET 0.3601 -0.878 4.2331
                    CHANNELS 6 Xposition Yposition Zposition Zrotation Xrotation Yrotation
                    JOINT lThumb2_End
                    {
                      OFFSET 1.8127 -1.216 2.2227
                      CHANNELS 6 Xposition Yposition Zposition Zrotation Xrotation Yrotation
                      End Site
                      {
                        OFFSET 0.0181 -0.0122 0.0222
                      }
                    }
                  }
                }
                JOINT lCarpal1
                {
                  OFFSET 0.9571 1.114 1.7695
                  CHANNELS 6 Xposition Yposition Zposition Zrotation Xrotation Yrotation
                  JOINT lIndex1
                  {
                    OFFSET 4.1246 0.487 4.1451
                    CHANNELS 6 Xposition Yposition Zposition Zrotation Xrotation Yrotation
                    JOINT lIndex2
                    {
                      OFFSET 3.4052 -1.454 2.7682
                      CHANNELS 6 Xposition Yposition Zposition Zrotation Xrotation Yrotation
                      JOINT lIndex2_End
                      {
                        OFFSET 1.4531 -1.795 1.2713
                        CHANNELS 6 Xposition Yposition Zposition Zrotation Xrotation Yrotation
                        End Site
                        {
                          OFFSET 0.0145 -0.0179 0.0127
                        }
                      }
                    }
                  }
                  JOINT lMid1
                  {
                    OFFSET 5.6954 0.21 2.1184
                    CHANNELS 6 Xposition Yposition Zposition Zrotation Xrotation Yrotation
                    JOINT lMid2
                    {
                      OFFSET 3.9766 -1.54 2.3863
                      CHANNELS 6 Xposition Yposition Zposition Zrotation Xrotation Yrotation
                      JOINT lMid2_End
                      {
                        OFFSET 1.4042 -1.926 1.125
                        CHANNELS 6 Xposition Yposition Zposition Zrotation Xrotation Yrotation
                        End Site
                        {
                          OFFSET 0.014 -0.0193 0.0113
                        }
                      }
                    }
                  }
                }
                JOINT lCarpal2
                {
                  OFFSET 2.0956 0.66 -0.3894
                  CHANNELS 6 Xposition Yposition Zposition Zrotation Xrotation Yrotation
                  JOINT lRing1
                  {
                    OFFSET 5.0395 -0.09 2.4971
                    CHANNELS 6 Xposition Yposition Zposition Zrotation Xrotation Yrotation
                    JOINT lRing2
                    {
                      OFFSET 3.7921 -1.552 1.4806
                      CHANNELS 6 Xposition Yposition Zposition Zrotation Xrotation Yrotation
                      JOINT lRing2_End
                      {
                        OFFSET 1.4655 -1.808 0.9609
                        CHANNELS 6 Xposition Yposition Zposition Zrotation Xrotation Yrotation
                        End Site
                        {
                          OFFSET 0.0147 -0.0181 0.0096
                        }
                      }
                    }
                  }
                  JOINT lPinky1
                  {
                    OFFSET 4.9141 -1.269 0.3591
                    CHANNELS 6 Xposition Yposition Zposition Zrotation Xrotation Yrotation
                    JOINT lPinky2
                    {
                      OFFSET 3.1477 -1.685 0.8462
                      CHANNELS 6 Xposition Yposition Zposition Zrotation Xrotation Yrotation
                      JOINT lPinky2_End
                      {
                        OFFSET 0.8055 -1.585 0.7955
                        CHANNELS 6 Xposition Yposition Zposition Zrotation Xrotation Yrotation
                        End Site
                        {
                          OFFSET 0.0081 -0.0158 0.008
                        }
                      }
                    }
                  }
                }
              }
            }
          }
        }
        JOINT rCollar
        {
          OFFSET -1.7069 20.075 5.0056
          CHANNELS 6 Xposition Yposition Zposition Zrotation Xrotation Yrotation
          JOINT rShldr
          {
            OFFSET -13.6458 -0.047 -4.849
            CHANNELS 6 Xposition Yposition Zposition Zrotation Xrotation Yrotation
            JOINT rForeArm
            {
              OFFSET -28.3255 -0.9759 2.2888
              CHANNELS 6 Xposition Yposition Zposition Zrotation Xrotation Yrotation
              JOINT rHand
              {
                OFFSET -22.1583 -0.53 10.8316
                CHANNELS 6 Xposition Yposition Zposition Zrotation Xrotation Yrotation
                JOINT rThumb1
                {
                  OFFSET -0.786 0.112 2.5817
                  CHANNELS 6 Xposition Yposition Zposition Zrotation Xrotation Yrotation
                  JOINT rThumb2
                  {
                    OFFSET -0.3601 -0.878 4.2331
                    CHANNELS 6 Xposition Yposition Zposition Zrotation Xrotation Yrotation
                    JOINT rThumb2_End
                    {
                      OFFSET -1.8127 -1.216 2.2227
                      CHANNELS 6 Xposition Yposition Zposition Zrotation Xrotation Yrotation
                      End Site
                      {
                        OFFSET -0.0181 -0.0122 0.0222
                      }
                    }
                  }
                }
                JOINT rCarpal1
                {
                  OFFSET -0.9571 1.114 1.7695
                  CHANNELS 6 Xposition Yposition Zposition Zrotation Xrotation Yrotation
                  JOINT rIndex1
                  {
                    OFFSET -4.1246 0.487 4.1451
                    CHANNELS 6 Xposition Yposition Zposition Zrotation Xrotation Yrotation
                    JOINT rIndex2
                    {
                      OFFSET -3.4052 -1.454 2.7682
                      CHANNELS 6 Xposition Yposition Zposition Zrotation Xrotation Yrotation
                      JOINT rIndex2_End
                      {
                        OFFSET -1.4531 -1.795 1.2713
                        CHANNELS 6 Xposition Yposition Zposition Zrotation Xrotation Yrotation
                        End Site
                        {
                          OFFSET -0.0145 -0.018 0.0127
                        }
                      }
                    }
                  }
                  JOINT rMid1
                  {
                    OFFSET -5.6954 0.21 2.1184
                    CHANNELS 6 Xposition Yposition Zposition Zrotation Xrotation Yrotation
                    JOINT rMid2
                    {
                      OFFSET -3.9766 -1.54 2.3863
                      CHANNELS 6 Xposition Yposition Zposition Zrotation Xrotation Yrotation
                      JOINT rMid2_End
                      {
                        OFFSET -1.4042 -1.926 1.125
                        CHANNELS 6 Xposition Yposition Zposition Zrotation Xrotation Yrotation
                        End Site
                        {
                          OFFSET -0.014 -0.0193 0.0113
                        }
                      }
                    }
                  }
                }
                JOINT rCarpal2
                {
                  OFFSET -2.0956 0.66 -0.3894
                  CHANNELS 6 Xposition Yposition Zposition Zrotation Xrotation Yrotation
                  JOINT rRing1
                  {
                    OFFSET -5.0395 -0.09 2.4971
                    CHANNELS 6 Xposition Yposition Zposition Zrotation Xrotation Yrotation
                    JOINT rRing2
                    {
                      OFFSET -3.7921 -1.552 1.4806
                      CHANNELS 6 Xposition Yposition Zposition Zrotation Xrotation Yrotation
                      JOINT rRing2_End
                      {
                        OFFSET -1.4655 -1.808 0.9609
                        CHANNELS 6 Xposition Yposition Zposition Zrotation Xrotation Yrotation
                        End Site
                        {
                          OFFSET -0.0147 -0.0181 0.0096
                        }
                      }
                    }
                  }
                  JOINT rPinky1
                  {
                    OFFSET -4.9141 -1.269 0.3592
                    CHANNELS 6 Xposition Yposition Zposition Zrotation Xrotation Yrotation
                    JOINT rPinky2
                    {
                      OFFSET -3.1477 -1.685 0.8462
                      CHANNELS 6 Xposition Yposition Zposition Zrotation Xrotation Yrotation
                      JOINT rPinky2_End
                      {
                        OFFSET -0.8055 -1.585 0.7955
                        CHANNELS 6 Xposition Yposition Zposition Zrotation Xrotation Yrotation
                        End Site
                        {
                          OFFSET -0.0081 -0.0158 0.008
                        }
                      }
                    }
                  }
                }
              }
            }
          }
        }
      }
    }
  }
  JOINT lThigh
  {
    OFFSET 8.367 -8.2066 0.5982
    CHANNELS 6 Xposition Yposition Zposition Zrotation Xrotation Yrotation
    JOINT lShin
    {
      OFFSET 2.1923 -43.463 -0.4932
      CHANNELS 6 Xposition Yposition Zposition Zrotation Xrotation Yrotation
      JOINT lFoot
      {
        OFFSET 0.7333 -45.8593 -2.6451
        CHANNELS 6 Xposition Yposition Zposition Zrotation Xrotation Yrotation
        End Site
        {
          OFFSET 2.6618 -4.2699 12.3931
        }
      }
    }
  }
  JOINT rThigh
  {
    OFFSET -8.367 -8.2066 0.5982
    CHANNELS 6 Xposition Yposition Zposition Zrotation Xrotation Yrotation
    JOINT rShin
    {
      OFFSET -2.1923 -43.463 -0.4931
      CHANNELS 6 Xposition Yposition Zposition Zrotation Xrotation Yrotation
      JOINT rFoot
      {
        OFFSET -0.7333 -45.8593 -2.6451
        CHANNELS 6 Xposition Yposition Zposition Zrotation Xrotation Yrotation
        End Site
        {
          OFFSET -2.6618 -4.2699 12.3931
        }
      }
    }
  }
}
MOTION
Frames:	4
Frame Time:	0.0333333
-60.9859 7.46676 14.0889 89.9982 1.99553 92.0096 0 -1.186 -1.5018 -0.611669 7.94682 -0.139786 -1.77636e-015 9.964 0.2134 -1.22143 15.8947 -0.195821 1.77636e-015 13.134 -3.2573 -1.22145 15.8947 -0.195805 3.55271e-015 20.686 -1.6905 -1.55755e-005 -17.0009 8.47903e-006 -3.55271e-015 7.238 -0.1237 -1.36307e-005 -39.0018 -1.19087e-005 1.7069 20.075 5.0056 3.84671 12.8887 -40.4658 13.6458 -0.047 -4.849 -33.8336 1.004 45.7483 28.3255 -0.9759 2.2888 -5.35966 -32.2537 -65.6136 22.1583 -0.53 10.8316 -3.88111 3.22928 19.0561 0.786 0.112 2.5817 -5.29669e-031 -9.54166e-015 -3.18055e-015 0.3601 -0.878 4.2331 6.36111e-015 -4.77083e-015 -3.18055e-015 1.8127 -1.216 2.2227 -2.64834e-031 -4.77083e-015 -3.18055e-015 0.9571 1.114 1.7695 -3.18055e-015 -9.54166e-015 -0 4.1246 0.487 4.1451 -3.18055e-015 1.59028e-015 -3.18055e-015 3.4052 -1.454 2.7682 3.18055e-015 6.36111e-015 -3.18055e-015 1.4531 -1.795 1.2713 6.36111e-015 -6.36111e-015 -0 5.6954 0.21 2.1184 -3.18055e-015 1.59028e-015 -3.18055e-015 3.9766 -1.54 2.3863 3.18055e-015 6.36111e-015 -3.18055e-015 1.4042 -1.926 1.125 6.36111e-015 -6.36111e-015 -0 2.0956 0.66 -0.3894 -3.18055e-015 -9.54166e-015 -0 5.0395 -0.09 2.4971 -3.18055e-015 1.59028e-015 -3.18055e-015 3.7921 -1.552 1.4806 3.18055e-015 6.36111e-015 -3.18055e-015 1.4655 -1.808 0.9609 6.36111e-015 -6.36111e-015 -0 4.9141 -1.269 0.3591 -3.18055e-015 1.59028e-015 -3.18055e-015 3.1477 -1.685 0.8462 3.18055e-015 6.36111e-015 -3.18055e-015 0.8055 -1.585 0.7955 6.36111e-015 -6.36111e-015 -0 -1.7069 20.075 5.0056 6.08296 20.9759 23.6295 -13.6458 -0.047 -4.849 43.7075 -7.95238 -49.6213 -28.3255 -0.9759 2.2888 0.365039 -7.07237 62.6857 -22.1583 -0.53 10.8316 15.1761 4.79076 3.6823 -0.786 0.112 2.5817 -3.18055e-015 -3.18055e-015 1.59028e-015 -0.3601 -0.878 4.2331 -3.18055e-015 6.36111e-015 1.59028e-015 -1.8127 -1.216 2.2227 -6.36111e-015 9.54166e-015 -0 -0.9571 1.114 1.7695 -8.82781e-032 -3.18055e-015 -1.59028e-015 -4.1246 0.487 4.1451 -3.18055e-015 -3.18055e-015 9.54166e-015 -3.4052 -1.454 2.7682 -3.18055e-015 -6.36111e-015 1.59028e-015 -1.4531 -1.795 1.2713 -6.36111e-015 6.36111e-015 1.59028e-015 -5.6954 0.21 2.1184 -3.18055e-015 -3.18055e-015 9.54166e-015 -3.9766 -1.54 2.3863 -3.18055e-015 -6.36111e-015 1.59028e-015 -1.4042 -1.926 1.125 -6.36111e-015 6.36111e-015 1.59028e-015 -2.0956 0.66 -0.3894 -8.82781e-032 -3.18055e-015 -1.59028e-015 -5.0395 -0.09 2.4971 -3.18055e-015 -3.18055e-015 9.54166e-015 -3.7921 -1.552 1.4806 -3.18055e-015 -6.36111e-015 1.59028e-015 -1.4655 -1.808 0.9609 -6.36111e-015 6.36111e-015 1.59028e-015 -4.9141 -1.269 0.3592 -3.18055e-015 -3.18055e-015 9.54166e-015 -3.1477 -1.685 0.8462 -3.18055e-015 -6.36111e-015 1.59028e-015 -0.8055 -1.585 0.7955 -6.36111e-015 6.36111e-015 1.59028e-015 8.367 -8.2066 0.5982 0.24034 -2.37577 -1.24091 2.1923 -43.463 -0.4932 -1.42344 2.7768 1.73714 0.7333 -45.8593 -2.6451 -15.8183 7.70883 30.3893 -8.367 -8.2066 0.5982 -45.6437 -32.0236 -74.7207 -2.1923 -43.463 -0.4931 -72.2269 47.8181 94.3829 -0.7333 -45.8593 -2.6451 10.6722 21.0647 -25.5564 
-60.986 7.46627 14.0895 89.9982 1.99555 92.0096 0 -1.186 -1.5018 -0.609834 8.05545 -0.14083 0 9.964 0.2134 -1.21769 16.1122 -0.196942 0 13.134 -3.2573 -1.21768 16.1122 -0.196965 0 20.686 -1.6905 -0.000432473 -17.0014 -0.000119027 0 7.238 -0.1237 -2.07632e-005 -39.0018 -6.07224e-006 1.7069 20.075 5.0056 4.15382 12.6893 -40.5683 13.6458 -0.047 -4.849 -33.9859 0.90451 45.8978 28.3255 -0.9759 2.2888 -5.38605 -32.8396 -66.4813 22.1583 -0.53 10.8316 -3.72936 2.90924 18.9417 0.786 0.112 2.5817 3.18055e-015 1.27222e-014 3.18055e-015 0.3601 -0.878 4.2331 -3.18055e-015 7.95139e-015 -0 1.8127 -1.216 2.2227 3.18055e-015 1.59028e-014 -3.18055e-015 0.9571 1.114 1.7695 3.18055e-015 -3.18055e-015 3.18055e-015 4.1246 0.487 4.1451 -9.54166e-015 1.27222e-014 3.18055e-015 3.4052 -1.454 2.7682 -3.18055e-015 1.74931e-014 -0 1.4531 -1.795 1.2713 6.36111e-015 1.11319e-014 3.18055e-015 5.6954 0.21 2.1184 -9.54166e-015 1.27222e-014 3.18055e-015 3.9766 -1.54 2.3863 -3.18055e-015 1.74931e-014 -0 1.4042 -1.926 1.125 6.36111e-015 1.11319e-014 3.18055e-015 2.0956 0.66 -0.3894 3.18055e-015 -3.18055e-015 3.18055e-015 5.0395 -0.09 2.4971 -9.54166e-015 1.27222e-014 3.18055e-015 3.7921 -1.552 1.4806 -3.18055e-015 1.74931e-014 -0 1.4655 -1.808 0.9609 6.36111e-015 1.11319e-014 3.18055e-015 4.9141 -1.269 0.3591 -9.54166e-015 1.27222e-014 3.18055e-015 3.1477 -1.685 0.8462 -3.18055e-015 1.74931e-014 -0 0.8055 -1.585 0.7955 6.36111e-015 1.11319e-014 3.18055e-015 -1.7069 20.075 5.0056 5.99016 20.8856 23.8837 -13.6458 -0.047 -4.849 43.7075 -7.9524 -49.6213 -28.3255 -0.9759 2.2888 0.365027 -7.07236 62.6857 -22.1583 -0.53 10.8316 14.9729 4.48467 3.91805 -0.786 0.112 2.5817 4.21918e-007 -1.02665e-007 5.53149e-007 -0.3601 -0.878 4.2331 3.18055e-015 1.27222e-014 4.77083e-015 -1.8127 -1.216 2.2227 -4.21918e-007 1.02665e-007 -5.53149e-007 -0.9571 1.114 1.7695 -6.36111e-015 0 3.18055e-015 -4.1246 0.487 4.1451 4.21918e-007 -1.02665e-007 5.53149e-007 -3.4052 -1.454 2.7682 0 1.27222e-014 -0 -1.4531 -1.795 1.2713 -4.21918e-007 1.02665e-007 -5.53149e-007 -5.6954 0.21 2.1184 4.21918e-007 -1.02665e-007 5.53149e-007 -3.9766 -1.54 2.3863 0 1.27222e-014 -0 -1.4042 -1.926 1.125 -4.21918e-007 1.02665e-007 -5.53149e-007 -2.0956 0.66 -0.3894 -6.36111e-015 0 3.18055e-015 -5.0395 -0.09 2.4971 4.21918e-007 -1.02665e-007 5.53149e-007 -3.7921 -1.552 1.4806 0 1.27222e-014 -0 -1.4655 -1.808 0.9609 -4.21918e-007 1.02665e-007 -5.53149e-007 -4.9141 -1.269 0.3592 4.21918e-007 -1.02665e-007 5.53149e-007 -3.1477 -1.685 0.8462 0 1.27222e-014 -0 -0.8055 -1.585 0.7955 -4.21918e-007 1.02665e-007 -5.53149e-007 8.367 -8.2066 0.5982 0.240848 -2.37173 -1.24074 2.1923 -43.463 -0.4932 -1.42345 2.77141 1.73703 0.7333 -45.8593 -2.6451 -15.8187 7.71017 30.3895 -8.367 -8.2066 0.5982 -45.2342 -32.2309 -74.0955 -2.1923 -43.463 -0.4931 -72.2286 47.8178 94.3726 -0.7333 -45.8593 -2.6451 11.1634 20.8458 -26.0278 
-60.9862 7.4658 14.0901 89.9982 1.99555 92.0096 0 -1.186 -1.5018 -0.608086 8.15353 -0.141708 0 9.964 0.2134 -1.21428 16.308 -0.198008 1.77636e-015 13.134 -3.2573 -1.2143 16.308 -0.197993 3.55271e-015 20.686 -1.6905 -5.84902e-005 -17.0006 -2.12966e-005 0 7.238 -0.1237 1.01816e-005 -39.0018 -9.25574e-006 1.7069 20.075 5.0056 4.42976 12.5092 -40.6594 13.6458 -0.047 -4.849 -34.1229 0.814536 46.0321 28.3255 -0.9759 2.2888 -5.41849 -33.3691 -67.2664 22.1583 -0.53 10.8316 -3.59331 2.62087 18.8395 0.786 0.112 2.5817 -3.18055e-015 -4.77083e-015 -3.18055e-015 0.3601 -0.878 4.2331 3.53113e-031 -6.36111e-015 3.18055e-015 1.8127 -1.216 2.2227 8.82781e-032 -1.59028e-015 3.18055e-015 0.9571 1.114 1.7695 -3.18055e-015 3.18055e-015 -3.18055e-015 4.1246 0.487 4.1451 -0 -7.95139e-015 -0 3.4052 -1.454 2.7682 -3.18055e-015 -3.18055e-015 3.18055e-015 1.4531 -1.795 1.2713 3.18055e-015 -4.77083e-015 -0 5.6954 0.21 2.1184 -0 -7.95139e-015 -0 3.9766 -1.54 2.3863 -3.18055e-015 -3.18055e-015 3.18055e-015 1.4042 -1.926 1.125 3.18055e-015 -4.77083e-015 -0 2.0956 0.66 -0.3894 -3.18055e-015 3.18055e-015 -3.18055e-015 5.0395 -0.09 2.4971 -0 -7.95139e-015 -0 3.7921 -1.552 1.4806 -3.18055e-015 -3.18055e-015 3.18055e-015 1.4655 -1.808 0.9609 3.18055e-015 -4.77083e-015 -0 4.9141 -1.269 0.3591 -0 -7.95139e-015 -0 3.1477 -1.685 0.8462 -3.18055e-015 -3.18055e-015 3.18055e-015 0.8055 -1.585 0.7955 3.18055e-015 -4.77083e-015 -0 -1.7069 20.075 5.0056 5.90705 20.8041 24.1123 -13.6458 -0.047 -4.849 43.7075 -7.95239 -49.6213 -28.3255 -0.9759 2.2888 0.365026 -7.07238 62.6857 -22.1583 -0.53 10.8316 14.7911 4.2083 4.12918 -0.786 0.112 2.5817 -1.27222e-014 -9.54166e-015 1.59028e-015 -0.3601 -0.878 4.2331 -1.05626e-006 -5.51434e-007 1.27003e-006 -1.8127 -1.216 2.2227 1.24137e-006 4.4992e-007 8.42216e-007 -0.9571 1.114 1.7695 -9.54166e-015 -9.54166e-015 3.18055e-015 -4.1246 0.487 4.1451 -6.36111e-015 -9.54166e-015 1.59028e-015 -3.4052 -1.454 2.7682 -1.05626e-006 -5.51434e-007 1.27003e-006 -1.4531 -1.795 1.2713 1.24137e-006 4.4992e-007 8.42216e-007 -5.6954 0.21 2.1184 -6.36111e-015 -9.54166e-015 1.59028e-015 -3.9766 -1.54 2.3863 -1.05626e-006 -5.51434e-007 1.27003e-006 -1.4042 -1.926 1.125 1.24137e-006 4.4992e-007 8.42216e-007 -2.0956 0.66 -0.3894 -9.54166e-015 -9.54166e-015 3.18055e-015 -5.0395 -0.09 2.4971 -6.36111e-015 -9.54166e-015 1.59028e-015 -3.7921 -1.552 1.4806 -1.05626e-006 -5.51434e-007 1.27003e-006 -1.4655 -1.808 0.9609 1.24137e-006 4.4992e-007 8.42216e-007 -4.9141 -1.269 0.3592 -6.36111e-015 -9.54166e-015 1.59028e-015 -3.1477 -1.685 0.8462 -1.05626e-006 -5.51434e-007 1.27003e-006 -0.8055 -1.585 0.7955 1.24137e-006 4.4992e-007 8.42216e-007 8.367 -8.2066 0.5982 0.240806 -2.38828 -1.2412 2.1923 -43.463 -0.4932 -1.42361 2.80089 1.73603 0.7333 -45.8593 -2.6451 -15.8191 7.69722 30.3877 -8.367 -8.2066 0.5982 -44.8625 -32.4148 -73.5302 -2.1923 -43.463 -0.4931 -72.2303 47.8175 94.3635 -0.7333 -45.8593 -2.6451 11.6036 20.6451 -26.4499 
-60.9863 7.46534 14.0907 89.9982 1.99558 92.0096 0 -1.186 -1.5018 -0.606337 8.25147 -0.142603 0 9.964 0.2134 -1.21088 16.5039 -0.199058 1.77636e-015 13.134 -3.2573 -1.21087 16.5039 -0.199054 0 20.686 -1.6905 -0.00012725 -17.0007 -6.20812e-005 0 7.238 -0.1237 -9.69898e-007 -39.0018 1.2282e-006 1.7069 20.075 5.0056 4.70524 12.3288 -40.7495 13.6458 -0.047 -4.849 -34.2596 0.724267 46.1662 28.3255 -0.9759 2.2888 -5.45991 -33.8988 -68.0577 22.1583 -0.53 10.8316 -3.45778 2.33222 18.738 0.786 0.112 2.5817 6.36111e-015 -3.18055e-015 9.54166e-015 0.3601 -0.878 4.2331 3.18055e-015 -4.77083e-015 -0 1.8127 -1.216 2.2227 1.23589e-030 -1.11319e-014 6.36111e-015 0.9571 1.114 1.7695 6.36111e-015 -1.59028e-015 9.54166e-015 4.1246 0.487 4.1451 -1.27222e-014 -4.77083e-015 3.18055e-015 3.4052 -1.454 2.7682 3.18055e-015 -1.59028e-015 -3.18055e-015 1.4531 -1.795 1.2713 3.18055e-015 0 -3.18055e-015 5.6954 0.21 2.1184 -1.27222e-014 -4.77083e-015 3.18055e-015 3.9766 -1.54 2.3863 3.18055e-015 -1.59028e-015 -3.18055e-015 1.4042 -1.926 1.125 3.18055e-015 0 -3.18055e-015 2.0956 0.66 -0.3894 6.36111e-015 -1.59028e-015 9.54166e-015 5.0395 -0.09 2.4971 -1.27222e-014 -4.77083e-015 3.18055e-015 3.7921 -1.552 1.4806 3.18055e-015 -1.59028e-015 -3.18055e-015 1.4655 -1.808 0.9609 3.18055e-015 0 -3.18055e-015 4.9141 -1.269 0.3591 -1.27222e-014 -4.77083e-015 3.18055e-015 3.1477 -1.685 0.8462 3.18055e-015 -1.59028e-015 -3.18055e-015 0.8055 -1.585 0.7955 3.18055e-015 0 -3.18055e-015 -1.7069 20.075 5.0056 5.82433 20.7222 24.3406 -13.6458 -0.047 -4.849 43.7075 -7.9524 -49.6213 -28.3255 -0.9759 2.2888 0.365027 -7.07238 62.6857 -22.1583 -0.53 10.8316 14.6104 3.93121 4.3394 -0.786 0.112 2.5817 -5.55094e-007 -3.25596e-007 2.47013e-006 -0.3601 -0.878 4.2331 1.05768e-006 5.59367e-007 -1.27279e-006 -1.8127 -1.216 2.2227 -1.24133e-006 -4.54342e-007 -8.41091e-007 -0.9571 1.114 1.7695 0 0 -6.36111e-015 -4.1246 0.487 4.1451 -5.55094e-007 -3.25596e-007 2.47013e-006 -3.4052 -1.454 2.7682 1.05768e-006 5.59367e-007 -1.27279e-006 -1.4531 -1.795 1.2713 -1.24133e-006 -4.54342e-007 -8.41091e-007 -5.6954 0.21 2.1184 -5.55094e-007 -3.25596e-007 2.47013e-006 -3.9766 -1.54 2.3863 1.05768e-006 5.59367e-007 -1.27279e-006 -1.4042 -1.926 1.125 -1.24133e-006 -4.54342e-007 -8.41091e-007 -2.0956 0.66 -0.3894 0 0 -6.36111e-015 -5.0395 -0.09 2.4971 -5.55094e-007 -3.25596e-007 2.47013e-006 -3.7921 -1.552 1.4806 1.05768e-006 5.59367e-007 -1.27279e-006 -1.4655 -1.808 0.9609 -1.24133e-006 -4.54342e-007 -8.41091e-007 -4.9141 -1.269 0.3592 -5.55094e-007 -3.25596e-007 2.47013e-006 -3.1477 -1.685 0.8462 1.05768e-006 5.59367e-007 -1.27279e-006 -0.8055 -1.585 0.7955 -1.24133e-006 -4.54342e-007 -8.41091e-007 8.367 -8.2066 0.5982 0.241796 -2.36217 -1.24063 2.1923 -43.463 -0.4932 -1.42332 2.75047 1.73818 0.7333 -45.8593 -2.6451 -15.8195 7.72157 30.3912 -8.367 -8.2066 0.5982 -44.4878 -32.5957 -72.9622 -2.1923 -43.463 -0.4931 -72.232 47.8172 94.3545 -0.7333 -45.8593 -2.6451 12.0418 20.4414 -26.8701 
